<?xml version="1.0" encoding="utf-8"?>
<!-- Generator: Adobe Illustrator 17.0.0, SVG Export Plug-In . SVG Version: 6.00 Build 0)  -->
<!DOCTYPE svg PUBLIC "-//W3C//DTD SVG 1.1//EN" "http://www.w3.org/Graphics/SVG/1.1/DTD/svg11.dtd">
<svg version="1.1" id="Layer_1" xmlns="http://www.w3.org/2000/svg" xmlns:xlink="http://www.w3.org/1999/xlink" x="0px" y="0px"
	 width="1024px" height="1024px" viewBox="0 0 1024 1024" enable-background="new 0 0 1024 1024" xml:space="preserve">
<g>
	<g>
		<path d="M117.089,546.481c-1.798,7.607,1.865,15.454,8.851,18.959l756.999,379.648c5.228,2.621,11.439,2.348,16.418-0.724
			c4.976-3.071,8.006-8.502,8.006-14.35V550.367c0-9.315-7.55-16.864-16.864-16.864H133.501
			C125.684,533.5,118.891,538.873,117.089,546.481z M873.634,567.229v335.459L204.747,567.229H873.634L873.634,567.229z"/>
		<path d="M881.849,81.504L125.94,460.606c-6.99,3.503-10.647,11.362-8.851,18.958c1.801,7.606,8.595,12.98,16.412,12.98h756.997
			c9.315,0,16.864-7.55,16.864-16.864V96.033c0.003-0.019,0.003-0.038,0-0.047c0-9.315-7.55-16.864-16.864-16.864
			C887.336,79.121,884.376,79.989,881.849,81.504z"/>
	</g>
	<g>
		<path d="M117.089,546.481c-1.798,7.607,1.865,15.454,8.851,18.959l756.999,379.648c5.228,2.621,11.439,2.348,16.418-0.724
			c4.976-3.071,8.006-8.502,8.006-14.35V550.367c0-9.315-7.55-16.864-16.864-16.864H133.501
			C125.684,533.5,118.891,538.873,117.089,546.481z M873.634,567.229v335.459L204.747,567.229H873.634L873.634,567.229z"/>
		<path d="M881.849,81.504L125.94,460.606c-6.99,3.503-10.647,11.362-8.851,18.958c1.801,7.606,8.595,12.98,16.412,12.98h756.997
			c9.315,0,16.864-7.55,16.864-16.864V96.033c0.003-0.019,0.003-0.038,0-0.047c0-9.315-7.55-16.864-16.864-16.864
			C887.336,79.121,884.376,79.989,881.849,81.504z"/>
	</g>
</g>
</svg>
